<?xml version="1.0" encoding="UTF-8"?>
<svg id="Layer_1" xmlns="http://www.w3.org/2000/svg" version="1.1" viewBox="0 0 333.3 464">
  <!-- Generator: Adobe Illustrator 30.2.1, SVG Export Plug-In . SVG Version: 2.1.1 Build 1)  -->
  <defs>
    <style>
      .st0 {
        fill: #010101;
      }

      .st1 {
        fill: #f6f6f6;
      }

      .st2 {
        fill: #f7f7f7;
      }
    </style>
  </defs>
  <path class="st1" d="M219.7,336.9c2.5-1.2.3,3.7,1,3.9-.8-.3-1.7,1.3-2,1-1.5-1.7,1.3-5,1.1-4.9Z"/>
  <path class="st2" d="M102.9,108.9c-2.2-.3-3.4-2.2-4.7-4,2.5,0,3.8,1.6,4.7,4Z"/>
  <path class="st1" d="M103.4,56.6c-2.5.6-3.9-.5-6.2-1.2,2-1.3,4.3-.1,6.2,1.2Z"/>
  <path class="st0" d="M260.4,51c1,.6,2,1.1,3,1.7l13.8,7.6-25.9,57.1c-3.5,7.6-2,15,4,20.7,26.5,25.3,42.6,58.3,46,94.8,3.7,40.1-8.3,88.7-17.7,128l-18.9,72.7-46.9-12c8.1-27.8,15.7-54.9,22.3-83.1,5.1-21.9,9.2-43,11.9-65.2,5.3-43.5-7.1-98.6-55.8-109.1-23.7-5.1-47.2,4.6-60.4,25-11.9,18.3-13.9,40.8-5.9,61.3,16.7,42.5,58.9,44.4,66,78.9,1.1,5.2.3,10.1-2.9,14.3-2.8,3.7-7.6,6-13.4,6.6-.3,10.4-7.7,18.1-18.4,19,0,4.9.7,9.5-2.3,13.5-2.3,3.1-6.9,5.7-12.1,5.7-14.8,0-28.7-6.9-38.8-18.3-14.7-16.7-26.1-35.6-35.7-55.8-27-56.7-25.2-117.4,10.9-169.4,5.9-8.5,6.8-20.8-.2-28.5-10.8-12-23-21.7-35.9-31.1l-26.2-19.2,12.2-22.1,39.9,23.4c5,2.9,10.7,1.7,13.2-3.7,5.3-11.3,10.4-22.3,16.9-33.2l14.9,6.4c-3.3,8.2-7.3,15.7-9,24.5-3,15.1,10.9,37.3,21.7,47.3,5,4.7,12.2,4.1,18.1,1.4,5.5-2.4,8.2-7.5,9.9-14.1,5.2-20.8,8.6-41.4,11.8-62.8l25.4,4.3-6.3,33.7c-1.5,8.1-3.1,16.2-2.7,24.5.6,11.2,10.6,18.8,21.3,19.4,8.3.5,14.3-3.5,18.1-10.4l29.6-54.5c.4-.1,1.1-.3,2-.2,1.2.1,2,.7,2.4,1Z"/>
</svg>