<?xml version="1.0" encoding="UTF-8"?>
<svg id="Layer_1" xmlns="http://www.w3.org/2000/svg" version="1.1" viewBox="0 0 333.3 217">
  <!-- Generator: Adobe Illustrator 30.2.1, SVG Export Plug-In . SVG Version: 2.1.1 Build 1)  -->
  <defs>
    <style>
      .st0 {
        fill: #d9a29e;
      }

      .st1 {
        fill: #db5f5d;
      }
    </style>
  </defs>
  <path class="st0" d="M18.7,32.8c1.6.3,4.3.7,7.5,1.2,0,0,10.2,1.6,18.3,2.8,21.3,3.1,55.1,3.5,55.1,3.5,26.5.3,46.7-.7,63.5-1.6,28.8-1.5,53.3-2.8,79.3-7.3,24.8-4.2,34.4-6.3,34.4-6.3,5-1.1,12.4-2.7,22.8-4.5,6.4-1.1,11.6-1.8,15.1-2.2-.4.6-2.9,4.1-1.9,8.7.8,3.8,3.7,6.8,7.5,8-3.4,1.8-6.2,2.9-8.1,3.6-2.8,1-4.5,1.6-7,2.2-.5,0-2.6.6-7,1.7-1,.3-2.8.7-3.6,2.2-.2.4-.4.7-.3,1,.3,1.4,5,1.3,10.2,1.6,2.4.1,5.9.4,10.3,1-1.1.5-7.5,3.7-9.3,10.8-1,3.9-.2,7.3,0,7.9.8,3,2.3,5.1,3.2,6.2-11.9-2.4-21.7-3-28.7-3.1-6.7-.1-10.7.3-15.2,1.8,0,0-7.5,2.5-13.8,8.3-12.6,11.6-14.9,33.6-15.4,38.3-1.9,16.9-7.3,41.2-22.6,74-1.5-2.6-7.2-11.9-19.1-16.4-13-4.9-24.3-.8-26.9.3,10-17.2,13.9-32.3,15.5-41.9,2.6-15,.9-22-.6-26-3.5-9.7-10.1-15.4-13-17.8-15.1-12.7-34.1-12.7-64.7-12.6-25.6,0-43.2,3.9-51.6,6-8.8,2.2-16.1,4.7-21.5,6.7,1.2-3.4.5-7.1-1.9-9.7-3.4-3.6-8.3-2.8-8.6-2.8,1.5-1,3.8-2.5,6.7-4.2,16.8-9.9,27.7-11.5,27.4-14.1-.2-2-6.4-2.4-22.6-5.5-7.2-1.4-13-2.7-16.8-3.6.7-.5,4.8-3.7,5.4-9.4.4-4.3-1.4-7.5-2.1-8.5Z"/>
  <path class="st1" d="M18.7,33.3c-1.5-.5-3.5,1.9-3.9,2.4-.2.3-1,1.3-1.7,3.1-.5,1.4-1.4,3.6-.9,6.3.3,1.8,1.6,5.1,3.4,5.3,2.3.2,4.7-5.1,5.2-9,0-.2.3-2.6-.5-5.4-.4-1.3-.7-2.4-1.5-2.6Z"/>
  <path class="st1" d="M314.9,18.7c-.2,0-.5.2-1,1.4-.7,1.6-1.9,4.5-.7,7.9.5,1.4,1.2,2.3,2.3,3.6,1.5,1.9,2.6,2.4,3.2,2.7.9.4,1.3.5,1.7.4,1.6-.7,1.2-6.2-.7-10.5-1.1-2.6-3.4-6-4.7-5.6Z"/>
  <path class="st1" d="M312.2,50.3c-1.6,1.2-4.2,3.2-5.7,6.9-.1.3-1.9,4.7-.8,9.4.3,1.3.7,2.3,1.1,3.1.9,1.9,1.3,3,2.3,3.3,1.2.4,2.5-.6,3-1,5.4-4.2,6.3-22.2,2.9-23.1-.5-.1-1.2.4-2.7,1.5Z"/>
  <path class="st1" d="M20.6,86.8c2.4,4.1,8.5,5.8,10.5,3.9,2.1-2,.2-8.3-3.8-11.1-.2-.2-4-2.8-6.4-1.2-2.2,1.4-1.9,5.8-.4,8.5Z"/>
  <path class="st1" d="M213,192.4c-1.9,5.3-20.7,5.8-34.1-2.1-5.4-3.2-13.4-9.9-11.9-14,1.7-4.7,16-5.1,27-.9,9.9,3.7,20.6,12.4,19,17Z"/>
</svg>