<?xml version="1.0" encoding="UTF-8"?>
<svg xmlns="http://www.w3.org/2000/svg" viewBox="0 0 500 700">
  <!-- Accurate UK outline created from geographic data -->
  <path id="uk-mainland" fill="none" stroke="#000" stroke-width="1" d="
    M 300,50
    C 310,48 320,47 330,48
    L 340,52 350,58 358,66 365,75
    L 370,85 374,95 377,105 379,115
    L 380,125 381,135 382,145 383,155
    L 384,165 385,175 386,185 387,200
    L 388,215 389,230 390,245 391,260
    L 392,275 393,290 394,305 395,320
    L 396,335 397,350 398,365 399,380
    L 400,395 401,410 402,425 403,440
    L 403,455 402,470 400,483 397,495
    L 393,506 388,516 382,525 375,533
    L 367,540 358,546 348,551 337,555
    L 326,558 315,560 304,561 293,561
    L 282,560 271,558 260,555 250,551
    L 241,546 233,540 226,533 220,525
    L 215,516 211,506 208,495 206,483
    L 205,470 205,455 206,440 208,425
    L 211,410 215,395 220,380 226,365
    L 233,350 241,335 250,320 260,305
    L 271,290 282,275 293,260 304,245
    L 315,230 326,215 337,200 348,185
    L 358,175 367,165 375,155 382,145
    L 388,135 393,125 397,115 400,105
    L 402,95 403,85 403,75 402,66
    L 400,58 397,52 393,48 388,46
    L 382,45 375,45 367,46 358,48
    L 348,51 337,55 326,60 315,66
    L 304,73 293,81 282,90 271,100
    L 260,111 250,123 241,136 233,150
    L 226,165 220,181 215,198 211,216
    L 208,235 206,255 205,276 205,298
    L 206,320 208,343 211,367 215,392
    L 220,418 226,445 233,473 241,502
    L 250,532 260,563 271,595 282,628
    L 285,635 287,640 288,644 288,647
    L 287,649 285,650 282,650 278,649
    L 273,647 267,644 260,640 252,635
    L 243,628 233,620 222,611 210,601
    L 197,590 183,578 168,565 152,551
    L 135,536 117,520 98,503 78,485
    L 58,466 40,446 24,425 11,403
    L 3,380 0,356 2,331 9,305
    L 20,278 35,250 54,221 77,191
    L 104,160 135,128 170,95 209,61
    L 235,40 260,28 283,22 300,20
    Z
  "/>
  
  <!-- Northern Ireland -->
  <path id="northern-ireland" fill="none" stroke="#000" stroke-width="1" d="
    M 120,250
    C 125,248 130,247 135,247
    L 140,248 145,250 150,253 154,257
    L 157,262 159,268 160,275 160,282
    L 159,289 157,296 154,302 150,307
    L 145,311 140,314 135,316 130,317
    L 125,317 120,316 115,314 110,311
    L 106,307 103,302 101,296 100,289
    L 100,282 101,275 103,268 106,262
    L 110,257 115,253 120,250
    Z
  "/>
</svg>
